<svg xmlns="http://www.w3.org/2000/svg" width="36" height="36" viewBox="0 0 36 36">
    <path fill="#000" fill-rule="evenodd" d="M6 15L4.883 9.231a2 2 0 0 1 1.616-2.35l20.648-3.64a2 2 0 0 1 2.317 1.622l.693 3.932a2 2 0 0 1-1.622 2.317l-.007.001L6.018 15H29a2 2 0 0 1 2 2v13a2 2 0 0 1-2 2H8a2 2 0 0 1-2-2V15zm19.756 2h-2.794l-1.86 4h2.795l1.86-4zm2.206 0l-1.86 4H29v-4h-1.038zm-7.206 0h-2.794l-1.86 4h2.795l1.86-4zm-5 0h-2.794l-1.86 4h2.795l1.86-4zm-5 0H8v4h.897l1.86-4zM29 23H8v7h21v-7zm-14 5a1 1 0 0 1 0-2h6a1 1 0 0 1 0 2h-6zm9.638-22.286l-2.632.464-1.732 4.33 2.627-.453 1.737-4.341zm2.317-.409l-1.74 4.35 2.972-.513-.693-3.932-.539.095zm-7.267 1.281l-2.631.464-1.725 4.312 2.628-.454 1.728-4.322zm-4.949.873l-2.631.464-1.717 4.292 2.627-.453 1.721-4.303zm-4.949.873l-2.944.519.746 3.848.485-.084L9.79 8.332z"/>
</svg>
