<svg xmlns="http://www.w3.org/2000/svg" width="36" height="36" viewBox="0 0 36 36">
    <path fill="#000" fill-rule="evenodd" d="M13 18h1.5a1.5 1.5 0 0 1 0 3H13v1.5a1.5 1.5 0 0 1-3 0V21H8.5a1.5 1.5 0 0 1 0-3H10v-1.5a1.5 1.5 0 0 1 3 0V18zm4-8V6.5a1 1 0 0 1 2 0V10h5.5a9.5 9.5 0 0 1 0 19h-12a9.5 9.5 0 0 1 0-19H17zm-4.5 2a7.5 7.5 0 0 0 0 15h12a7.5 7.5 0 0 0 0-15h-12zm13 6a1.5 1.5 0 1 1 0-3 1.5 1.5 0 0 1 0 3zm0 6a1.5 1.5 0 1 1 0-3 1.5 1.5 0 0 1 0 3zm-3-3a1.5 1.5 0 1 1 0-3 1.5 1.5 0 0 1 0 3zm6 0a1.5 1.5 0 1 1 0-3 1.5 1.5 0 0 1 0 3z"/>
</svg>
