<svg xmlns="http://www.w3.org/2000/svg" width="36" height="36" viewBox="0 0 36 36">
    <path fill="#000" fill-rule="evenodd" d="M25.414 22l1.293 1.293a1 1 0 0 1-1.414 1.414L22.586 22h-1.172l-2.707 2.707a1 1 0 0 1-1.414-1.414L18.586 22H6v4h24v-4h-4.586zm1.191-2H30v-9H6v9h11.077c-1.259-1.352-1.557-3.435-.17-4.477 1.253-.941 3.663-.52 4.934.597 1.272-1.118 3.681-1.538 4.934-.597 1.387 1.042 1.09 3.125-.17 4.477zM6 9h24a2 2 0 0 1 2 2v15a2 2 0 0 1-2 2H6a2 2 0 0 1-2-2V11a2 2 0 0 1 2-2zm14.564 8.662c-.593-.572-2.047-.847-2.455-.54-.246.185-.105 1.001.516 1.6.292.283.916.413 1.895.312.241-.772.212-1.21.044-1.372zm2.555 0c-.168.162-.198.6.043 1.372.98.101 1.603-.03 1.895-.311.621-.6.762-1.416.517-1.6-.408-.308-1.862-.033-2.455.539z"/>
</svg>
