<svg xmlns="http://www.w3.org/2000/svg" width="36" height="36" viewBox="0 0 36 36">
    <path fill="#000" fill-rule="evenodd" d="M6 18H5a1 1 0 0 1-.679-1.735l13-12a1 1 0 0 1 1.357 0l13 12A1 1 0 0 1 31 18h-1v13a1 1 0 0 1-1 1h-8a.997.997 0 0 1-1-1v-7.5c0-.365-.133-.5-.5-.5h-3c-.367 0-.5.135-.5.5V31a1 1 0 0 1-1.014 1H6.993A1 1 0 0 1 6 31V18zm2 0v12.007l6-.006V23.5c0-1.465 1.023-2.5 2.5-2.5h3c1.477 0 2.5 1.035 2.5 2.5V30h6V18H8zm-.442-2h1.365l.8-1.998L7.557 16zm20.884 0l-3.073-2.837L24.096 16h4.346zm-6.538 0l1.914-4.268-1.974-1.823L19.575 16h2.329zm-4.463 0l2.815-7.557L18.692 7l-3.614 9h2.363zm-4.519 0l3.16-7.869-2.945 2.719-2.06 5.15h1.845z"/>
</svg>
