<svg xmlns="http://www.w3.org/2000/svg" width="36" height="36" viewBox="0 0 36 36">
    <path fill="#000" fill-rule="evenodd" d="M26 27h1a1 1 0 0 1 0 2h-1v1a1 1 0 0 1-2 0v-1h-1a1 1 0 0 1 0-2h1v-1a1 1 0 0 1 2 0v1zm-7 1c0-.701.12-1.374.341-2H10a1 1 0 0 1-1-1v-9a1 1 0 0 1 1-1h12a1 1 0 0 1 1 1v6.341c.322-.113.656-.2 1-.258V10.438L18.645 4H18v3a1 1 0 0 1-2 0V4h-1v5a1 1 0 0 1-2 0V4h-1v5a1 1 0 0 1-2 0V4H9a1 1 0 0 0-1 1v22a1 1 0 0 0 1 1h10zm.341 2H9a3 3 0 0 1-3-3V5a3 3 0 0 1 3-3h9.645a2 2 0 0 1 1.537.721l5.356 6.438A2 2 0 0 1 26 10.438v11.645A6.002 6.002 0 0 1 25 34a6.002 6.002 0 0 1-5.659-4zm1.187-6c.148-.166.306-.324.472-.472V22h-2v2h1.528zM11 22v2h2v-2h-2zm0-2h6v-3h-6v3zm6 2h-2v2h2v-2zm4-2v-3h-2v3h2zm4 12a4 4 0 1 0 0-8 4 4 0 0 0 0 8z"/>
</svg>
