<svg xmlns="http://www.w3.org/2000/svg" width="36" height="36" viewBox="0 0 36 36">
    <g fill="none" fill-rule="evenodd" stroke="#7FBAF9" stroke-width="2">
        <path d="M2 0h10.114L18 7.076V24a2 2 0 0 1-2 2H2a2 2 0 0 1-2-2V2a2 2 0 0 1 2-2z"/>
        <path stroke-linecap="round" stroke-linejoin="round" d="M3.914 1v5M6.914 1v5M9.914 1v3.5"/>
        <path d="M3 13h12v9H3z"/>
        <path stroke-linecap="square" d="M3 16.587h12M10.71 13.5v7.606M6.71 17.892v2.784"/>
        <circle cx="18" cy="25" r="5" fill="#FFF"/>
        <path stroke-linecap="round" stroke-linejoin="round" d="M18 25v-2 2h2-2zm0 0v2-2h-2 2z"/>
    </g>
</svg>
