<svg xmlns="http://www.w3.org/2000/svg" width="71.557" height="73.177">
    <path d="M39.28 0C17.62 0 0 13.958 0 31.112c0 9.625 4.416 17.602 14.002 23.472 0 0-1.04 6.738-3.563 9.337-1.25 1.288-8.012 9.256-8.012 9.256s26.52-7.436 34.184-11.229c3.13.626-.593.275 2.67.275 21.661 0 39.28-13.958 39.28-31.111C78.561 13.958 60.942 0 39.281 0z"/>
    <path d="M38.35 48.524l-.556-.507c-.873-.796-2.046-1.674-3.4-2.69-5.379-4.039-13.506-10.141-13.506-19.873 0-5.978 4.45-10.842 9.921-10.842 2.926 0 5.665 2.4 7.54 4.802 1.877-2.402 4.619-4.802 7.541-4.802 5.47 0 9.922 4.864 9.922 10.842 0 9.732-8.128 15.834-13.506 19.872-1.357 1.017-2.527 1.895-3.4 2.691z" fill="#fff"/>
</svg>
