<svg xmlns="http://www.w3.org/2000/svg" viewBox="0 0 26 26">
<path d="M 3 0 C 1.34375 0 0 1.34375 0 3 L 0 17 C 0 18.65625 1.34375 20 3 20 L 10 20 L 10 21 C 10 21.550781 10.449219 22 11 22 L 15 22 C 15.550781 22 16 21.484375 16 21 L 16 20 L 23 20 C 24.65625 20 26 18.65625 26 17 L 26 3 C 26 1.34375 24.65625 0 23 0 Z M 3 2 L 23 2 C 23.550781 2 24 2.449219 24 3 L 24 15 C 24 15.550781 23.550781 16 23 16 L 3 16 C 2.449219 16 2 15.550781 2 15 L 2 3 C 2 2.449219 2.449219 2 3 2 Z M 23 16.96875 C 23.574219 16.96875 24.03125 17.429688 24.03125 18 C 24.03125 18.574219 23.574219 19.03125 23 19.03125 C 22.429688 19.03125 21.96875 18.574219 21.96875 18 C 21.96875 17.429688 22.429688 16.96875 23 16.96875 Z M 6 23 C 5.449219 23 5 24 5 24 L 5 25 L 21 25 L 21 24 C 21 23.449219 20.550781 23 20 23 Z "></path>
</svg>
