<svg xmlns="http://www.w3.org/2000/svg" viewBox="0 0 32 32">
    <path d="M27.806 2.517l1.412 1.413-6.111 6.081-10.903 10.903-1.873 1.904-6.665 6.665-1.413-1.413 6.112-6.112c-4.162-2.061-6.952-5.121-7.125-5.313L.656 16l.584-.645c.265-.296 6.55-7.217 14.496-7.217 1.923 0 3.739.422 5.405 1.044zm-12.07 7.586c-2.115 0-4.116.595-5.897 1.413a6.806 6.806 0 0 0-.983 3.501c0 1.785.691 3.417 1.812 4.638l2.795-2.795a2.91 2.91 0 0 1-.676-1.843 2.95 2.95 0 0 1 2.949-2.948c.702 0 1.34.265 1.843.676l1.996-1.997c-1.221-.376-2.5-.645-3.84-.645zm9.152.89c3.152 1.94 5.198 4.197 5.344 4.362l.583.645-.583.645c-.253.284-6.073 6.653-13.575 7.156-.303.03-.61.061-.921.061-.311 0-.618-.03-.922-.061-.81-.054-1.6-.161-2.364-.338l1.75-1.75c.5.115 1.006.184 1.536.184a6.888 6.888 0 0 0 6.88-6.88c0-.522-.07-1.032-.185-1.535zm-.553 1.997c.158.664.246 1.34.246 2.027 0 1.709-.48 3.283-1.32 4.638A25.392 25.392 0 0 0 28.112 16a25.663 25.663 0 0 0-3.778-3.01zm-17.199 0A25.875 25.875 0 0 0 3.36 16c.883.852 2.63 2.396 4.883 3.685a8.825 8.825 0 0 1-1.351-4.668c0-.687.088-1.366.245-2.027z"/>
</svg>
