<svg width="16" height="16" viewBox="0 0 16 16" fill="none" xmlns="http://www.w3.org/2000/svg">
<path d="M15.8539 12.854L11 8L15.8539 3.14604C15.9059 3.09404 15.9439 3.03304 15.9679 2.96804C16.0339 2.79004 15.9959 2.58204 15.8539 2.43904L13.561 0.146063C13.418 0.00306425 13.21 -0.0349354 13.032 0.032064C12.967 0.0560638 12.906 0.0940635 12.854 0.146063L8 5.00002L3.14604 0.146063C3.09404 0.0940635 3.03304 0.0560638 2.96804 0.032064C2.79004 -0.0339354 2.58204 0.00306425 2.43904 0.146063L0.146063 2.43904C0.00306425 2.58204 -0.0349354 2.79004 0.032064 2.96804C0.0560638 3.03304 0.0940635 3.09404 0.146063 3.14604L5.00002 8L0.146063 12.854C0.0940635 12.906 0.0560638 12.967 0.032064 13.032C-0.0339354 13.21 0.00306425 13.418 0.146063 13.561L2.43904 15.8539C2.58204 15.9969 2.79004 16.0349 2.96804 15.9679C3.03304 15.9439 3.09404 15.9059 3.14604 15.8539L8 11L12.854 15.8539C12.906 15.9059 12.967 15.9439 13.032 15.9679C13.21 16.0339 13.418 15.9969 13.561 15.8539L15.8539 13.561C15.9969 13.418 16.0349 13.21 15.9679 13.032C15.9439 12.967 15.9059 12.906 15.8539 12.854Z" fill="black"/>
</svg>
