<svg xmlns="http://www.w3.org/2000/svg" width="128" height="16" viewBox="0 0 128 16">
    <g fill="none" fill-rule="evenodd">
        <path fill="#173962" d="M7.942 2.842c2.881 0 5.207 2.321 5.207 5.158s-2.326 5.158-5.207 5.158c-2.88 0-5.206-2.321-5.206-5.158S5.06 2.842 7.942 2.842zm0-1.842C4.124 1 1 4.132 1 8s3.124 7 6.942 7 6.942-3.132 6.942-7-3.124-7-6.942-7z"/>
        <path stroke="#3576BB" stroke-width="1.732" d="M5.86 9.474l2.082-2.21 2.083 2.21"/>
        <path fill="#3576BB" d="M28.63 10.653c0 1.031-.313 1.805-.937 2.358-.625.552-1.493.847-2.638.847h-5.936V2.437h5.762c1.041 0 1.84.258 2.43.774.59.515.868 1.252.868 2.173 0 1.18-.486 1.99-1.389 2.432 1.25.479 1.84 1.4 1.84 2.837zm-6.734-3.648h2.187c.833 0 1.25-.331 1.25-1.031 0-.663-.383-.995-1.112-.995h-2.325v2.026zm3.853 3.316c0-.7-.417-1.068-1.285-1.068h-2.533v2.063h2.707c.729 0 1.11-.332 1.11-.995zM32.9 5.163v1.805h5.24v2.358H32.9v1.842h5.935v2.727h-8.678V2.474h8.678V5.2h-5.936zM48.762 11.132v2.726h-8.157V2.437h2.777v8.695h5.38z"/>
        <path fill="#173962" d="M56.988 5.163h-3.401v8.695H50.81V5.163h-3.402V2.437h9.58v2.726zM61.154 5.163v1.805h5.241v2.358h-5.241v1.842h5.935v2.727h-8.712V2.474h8.712V5.2h-5.935zM78.683 11.795c-1.111 1.51-2.673 2.284-4.652 2.284-1.666 0-3.054-.553-4.13-1.658s-1.597-2.505-1.597-4.274c0-1.731.52-3.168 1.597-4.273 1.041-1.106 2.395-1.658 4.026-1.658 1.597 0 2.95.552 4.027 1.658L76.149 6.01c-.556-.664-1.25-.995-2.152-.995-.868 0-1.528.295-2.048.847-.52.553-.764 1.326-.764 2.248 0 .92.278 1.657.764 2.247.52.59 1.18.847 2.048.847.763 0 1.388-.22 1.909-.663V9.326h-2.222V6.932h4.999v4.863zM81.355 12.421c-1.041-1.105-1.562-2.542-1.562-4.237 0-1.695.521-3.131 1.562-4.237 1.042-1.105 2.395-1.658 4.027-1.658 1.631 0 2.985.553 4.026 1.658C90.45 5.053 90.97 6.49 90.97 8.184c0 1.695-.52 3.132-1.562 4.237-1.041 1.105-2.395 1.658-4.026 1.658-1.632 0-2.985-.553-4.027-1.658zm5.97-2.026c.487-.553.764-1.327.764-2.248 0-.92-.243-1.658-.763-2.247-.521-.59-1.146-.847-1.944-.847-.799 0-1.458.294-1.944.847-.486.553-.764 1.326-.764 2.247 0 .921.243 1.658.764 2.248.486.59 1.145.847 1.944.847.798 0 1.458-.258 1.944-.847zM95.274 5.163v1.805h5.242v2.358h-5.242v1.842h5.936v2.727h-8.712V2.474h8.712V5.2h-5.936zM111.45 3.984c.971 1.032 1.457 2.395 1.457 4.2 0 1.769-.486 3.169-1.457 4.2-.972 1.032-2.291 1.51-3.992 1.51h-4.478V2.475h4.478c1.666-.037 3.02.479 3.992 1.51zm-2.152 6.374c.485-.516.728-1.253.728-2.21 0-.959-.243-1.695-.728-2.211-.486-.516-1.18-.774-2.048-.774h-1.493v5.969h1.493c.867 0 1.562-.258 2.048-.774zM113.185 13.379a.75.75 0 0 1-.208-.516c0-.22.07-.405.208-.552a.686.686 0 0 1 .52-.222c.21 0 .383.074.487.222.104.147.208.331.208.552 0 .221-.07.405-.208.553a.686.686 0 0 1-.52.22.8.8 0 0 1-.487-.257zM120.926 6.932v6.557h-.972l-3.298-5.084v5.084h-1.006V6.932h1.25l3.019 4.679V6.93zM126.93 12.458v1.031h-4.477V6.932h1.041v5.526z"/>
    </g>
</svg>
