<svg xmlns="http://www.w3.org/2000/svg" width="83" height="31" viewBox="0 0 83 31">
    <g fill="none" fill-rule="nonzero">
        <path fill="#08162B" d="M42.73 8.775c-1.239-.788-3.106-.053-3.106 1.63 0 1.765 1.977 2.472 3.18 1.579l.82.922a3.347 3.347 0 0 1-4.496-.255 3.207 3.207 0 0 1-.064-4.424 3.346 3.346 0 0 1 4.487-.38l-.82.928zM48.05 13.53l-1.193-2.516h-.637v2.51H44.94v-6.28h2.406a1.91 1.91 0 0 1 1.867 1.487 1.877 1.877 0 0 1-1.075 2.112l1.267 2.686-1.355.001zm-1.83-5.032v1.263h1.13a.64.64 0 0 0 .451-.183.626.626 0 0 0 0-.892.648.648 0 0 0-.452-.188h-1.13zM55.075 8.507h-2.979v1.155h2.46v1.254h-2.46v1.36h2.955v1.254h-4.228V7.254h4.255zM60.706 12.367h-2.643l-.6 1.163H56.03l3.253-6.276h.374l3.014 6.276H61.26l-.553-1.163zm-.604-1.254l-.665-1.397-.72 1.397h1.385zM67.811 7.254v1.253h-1.768v5.023h-1.275V8.507h-1.775V7.254zM69.087 13.524v-6.27h1.275v6.27zM74.39 13.53l-2.891-6.276h1.413l1.67 3.563 1.659-3.563h1.413l-2.88 6.276zM82.954 8.507h-2.98v1.155h2.46v1.254h-2.46v1.36h2.952v1.254H78.7V7.254h4.255zM44.653 19.822v.636c0 1.97-1.458 3.34-3.17 3.34h-.01c-1.82-.01-3.286-1.467-3.276-3.255.01-1.788 1.493-3.229 3.312-3.219h.028c.74.007 1.455.26 2.03.717l-.919.884a2.047 2.047 0 0 0-1.121-.35h-.018c-.537-.001-1.052.208-1.43.582-.384.367-.601.87-.602 1.397a1.965 1.965 0 0 0 .574 1.415c.375.382.891.598 1.431.6.929 0 1.722-.654 1.959-1.496H42v-1.25h2.652zM49.08 23.689l-1.193-2.516h-.637v2.507h-1.276v-6.275h2.405a1.91 1.91 0 0 1 1.868 1.486 1.877 1.877 0 0 1-1.075 2.113l1.266 2.685H49.08zm-1.83-5.032v1.263h1.129a.64.64 0 0 0 .452-.183.626.626 0 0 0 0-.892.648.648 0 0 0-.452-.188h-1.13zM58.146 20.548c0 1.795-1.482 3.25-3.308 3.25-1.826 0-3.307-1.456-3.307-3.251s1.481-3.25 3.307-3.25c1.826.003 3.305 1.457 3.308 3.25zm-5.303 0c0 1.083.893 1.96 1.995 1.96s1.996-.877 1.996-1.96-.894-1.961-1.996-1.961a2.01 2.01 0 0 0-1.412.573 1.94 1.94 0 0 0-.583 1.388zM64.478 21.371c-.028 1.321-1.125 2.378-2.469 2.38-1.344.003-2.445-1.05-2.478-2.371v-3.966h1.278v3.957c.001.312.128.612.354.832.226.22.53.342.849.341.313.002.615-.12.835-.34.223-.219.35-.514.355-.824h-.009v-3.966h1.278v3.957h.007zM68.486 17.414c1.059 0 1.918.843 1.918 1.884s-.859 1.885-1.918 1.885h-.792v2.506h-1.276v-6.275h2.068zm0 2.516a.637.637 0 0 0 .638-.627.642.642 0 0 0-.638-.636h-.792v1.263h.792z"/>
        <path fill="#0BB0F9" d="M15.798 13.544h15.798v3.874H15.798z"/>
        <path fill="#0BB0F9" d="M25.886 21.205l-.028.049a11.807 11.807 0 0 1-4.22 4.209c-4.583 2.703-10.45 1.977-14.21-1.757l-.052-.051c-3.768-3.717-4.52-9.46-1.834-13.993a11.866 11.866 0 0 1 10.144-5.787c3.126.01 6.119 1.248 8.313 3.437l.056.056 2.787-2.74-.052-.051A15.765 15.765 0 0 0 16.557.03V.003h-1.739v.026A15.768 15.768 0 0 0 4.575 4.586a15.654 15.654 0 0 0-2.451 3.136c-3.571 6.054-2.56 13.71 2.464 18.668l.057.055a15.766 15.766 0 0 0 10.173 4.49v.028h1.739v-.027a15.912 15.912 0 0 0 7.115-2.151 15.746 15.746 0 0 0 5.603-5.592l.028-.048-3.417-1.94z"/>
    </g>
</svg>
