<svg xmlns="http://www.w3.org/2000/svg" viewBox="0 0 1032.9 330.03">
    <defs>
        <style>
        </style>
    </defs>
    <path fill="#e64136" d="M678.91 30.92c-6.35 10.38-20.08 32.18-22.36 35.77a10.06 10.06 0 0 1-9.74 4.67c-5.36-.41-32.36-12.3-36.42-14.06-4.8-2.08-5.64-4.49-2.53-9.31 1.4-2.17 8.1-14.45 12.4-20.45a12.65 12.65 0 0 1 8.49-4.93c10-1.3 38.19-1.28 46-.85 5.51.29 5.88 6.36 4.16 9.16z"/>
    <g fill="#fff">
        <path d="M355.15 145.73c5-10.84 15.84-35.55 16.51-41.2.29-2.49.27-5.19-1.43-6.48-5.78-4.37-24.16-11.64-31.1-10.22-4.1.84-10.08 10.08-10.08 10.08s-9.93-6.36-13.07-7.81c-10.39-4.77-21.09-8-32.61-8-16.12.05-29.79 16.78-42.59 28.89-28.68 27.13-52.93 70.31-57.52 79.62-3.6 7.3-3.73 11.8-1.64 16.22 1.44 3 14.87 23.09 20.45 27.31a19.67 19.67 0 0 0 10.79 3.85c12.74 1 25.65-8.15 35.13-15.59s36.93-33.83 46-43.56c.34 0-16.78 34.47-17.51 36.53a11.81 11.81 0 0 0 1.38 10.92c7.66 11.3 25.58 28.33 29.86 28.33 4.69.04 37.3-86.73 47.43-108.89zM263.59 168c-7.46 6.84-18.22 17.79-27.86 26-3.81 3.24-14.45 13.36-16.51 11.13s29.19-42.26 34.27-48.12c10.2-11.77 35.95-39.61 56.92-46 5.28-1.61 9-3.58 9.74-2.09 2.04 4.22-51.1 54.09-56.56 59.08zM535.04 101.09c-5.07-8.69-18.33-20.32-28.54-21.61-13.07-1.66-32.27 11.31-45.88 22.91 1.93-9 7.13-18.18 7.52-20.84 1-7.13-1.47-9.24-6.34-13.69-2.54-2.32-22.25-12.42-26.6-11.76-5.73.88-9.66 4.62-12.74 9.8-3.78 6.36-109.5 197.69-114.63 214.27-2.24 7.25-1.81 10.95 1 14.71 1.27 1.72 14 16.94 19.78 21 5.42 3.78 9.46 2.12 12.65-2 5.32-6.82 38.3-80.5 44.44-88.45 1.7-2.19 2.27-6.92 4.73-3.92s12.36 15.38 16.37 17.91c9.73 6.15 22.14 5.85 32.87 2.92 23.29-6.37 42.07-25.2 57.45-42.82 13.4-15.36 28.78-39.95 35-56.08s10.64-29.1 2.92-42.35zm-37.98 10.45c-3.12 10.6-36.44 78.13-79.38 102.89-3.69 2.13-5.86 3.4-5.8 2.9.75-6.95 4-13 8-20.19 18.18-32.6 33.75-55.49 43.38-65.6 8.11-8.48 17.62-19.84 28.48-24.9 8.4-3.91 6.58.59 5.32 4.9zM629.58 86.86c-5.58-1.65-28.41-11.32-34.32-10.5s-8.89 4.3-11.76 7.8c-3.54 4.3-56.39 99.88-66 117.83-1.66 3.09-.5 6.34.35 7.91s25.87 32 30.3 33.19c7.34 2 11.12-1.37 13.54-6.56 2.58-5.53 51.82-104.44 69.67-129.31 5.9-8.2 4.21-18.59-1.78-20.36zM632.4 242.18c14.22 2.23 21.42-2.26 32.47-10.21 9.81-7.06 34.11-29 44.23-40.76-5.27 13.27-11.17 30-12.39 36.65s-3.9 9.06-.2 15.27c.49.81 18.62 17.37 25 18.18 6.62.85 13.58-.68 15.73-8.35 29.15-104 89.47-176.65 121.8-226.26 3.65-5.6-1.48-11.33-4.68-13.51C846.22 7.61 832.13-.1 829.17 0c-5 .17-8.17 1.66-10.62 4-3 2.89-21.81 30.27-27.81 40.52-4 6.8-29.39 48.65-34.94 57.23-14.48-20.25-60-13.49-81.11 4.55-19.22 16.42-38 36.08-52.8 56.61-7.9 10.95-16.31 23.78-19.19 37.19a41.8 41.8 0 0 0 .24 16.74c3.08 14.34 16.68 23.33 29.46 25.34zM741.14 126.3c-.66 1.31-5 8.06-8.26 12.55-3.61 4.16-12 13.23-13.86 15.16-26.33 28-64.93 54.38-70.1 55.43s-3.73-5-1.67-9.27c10.34-21.45 50.81-59.82 62.33-70.17 16.68-14.99 35.13-10.77 31.56-3.7zM1022.9 133.18c-1.23-1.72-4.27-4.95-9-4.82-9.3.24-36.61 1.69-67 1.59a61.83 61.83 0 0 0-1.7-13.6c-5.31-19.5-25.13-34.63-40.67-37.92-8.11-1.72-26-5.25-44.23 4.42-32.79 17.36-58.18 53.33-69.18 82.07-5.87 15.31-6.23 29 2.35 43.19 13.54 22.33 36.28 40.13 63.48 33.69 31.2-7.39 65.62-39 81.31-73.95 34.25 1.72 67.75 2.87 83.77 2.83 9.26 0 11-3.95 10.91-6.63-.42-7.14-4.6-23.23-10.04-30.87zm-139-17.12c5-5.28 12.94-10.37 20-9.45 6.85.89 6.4 7.93 5.35 12.65a76.71 76.71 0 0 1-2.76 9.45c-10.93-.71-21.42-1.77-30.79-3.32 4.09-4.69 7.04-8.07 8.25-9.33zm-21.75 72l.77-.69.24-.23-.49.45-1 .91c-5.26 4.77-19.07 18.81-26.92 20-10 1.51-13.75-12.06-6.16-23.29 4.55-6.72 11-15.25 17.84-24 8.92 1.17 22.52 2.37 38.41 3.49a243.81 243.81 0 0 1-22.64 23.36z"/>
        <path d="M245.33 305.91c-16.83-11.74-101-110.8-117.78-147.21 10.65-6.89 51-24.65 67.72-38.17 20.7-16.71 38.65-39.21 27.58-67.37a67.18 67.18 0 0 0-46.49-40.44c-35.61-8.93-79.19-6.13-163 22.57-7.23 2.48-8.26 5.7-6 9.35 1.83 3 10.92 20.4 15.41 25.68 3 3.56 6.82 2.27 8.54 1.63 36.46-13.66 147.08-53.09 161.26-28.91 7.1 12.12-21.61 37.24-34.44 45.72-16.56 10.92-31.87 17.78-49.47 26.31 3.89-5.06 22.12-37.72 31.23-52.42l3.21-5c.2-.32-2.82 4.37-2.64 4.07 2.13-3.82.29-7-5.9-6.68-6.63.36-52.4 21.33-63.33 27.1-6.77 3.58-15 11.76-16.77 14.79-21.59 37.81-49 86.12-51.05 89.3s-3.6 6.55-3.39 9.6c.37 5.36 20.3 31.69 25 35.13 9.24 6.8 14.35 3.64 17.89-2.58 2.61-4.58 27.55-55.68 33.15-66.3 11.2 28 99.07 150.44 103.31 155.72 3.26 4.06 7 7.42 11.92 9.25 14.9 5.58 36.59 2.82 51.16-4 11.36-5.38 9.87-12.26 2.88-17.14z"/>
    </g>
</svg>
